# xmcd
# 
# Track frame offsets:
#     150
#     28542
#     77919
#     96028
#     144015
#     162603
# 
# Disc length: 2372
# 
# Revision: 1
# Processed by: cddbd v1.5.2PL0 Copyright (c) Steve Scherf et al.
# Submitted via: BonkEnc v1.0.8
# 
DISCID=41094206
DTITLE=Jimmy Smith - Portuguese Soul
DYEAR=1973
DGENRE=Soul Jazz
TTITLE0=And I Love You So
TTITLE1=Blap
TTITLE2=Opening: Prologue
TTITLE3=1st Movement: Portuguese Soul
TTITLE4=2nd Movement: Ritual
TTITLE5=3rd Movement: Farewell To Lisbon Town
EXTD=YEAR: 1973
EXTT0=
EXTT1=
EXTT2=
EXTT3=
EXTT4=
EXTT5=
PLAYORDER=
